#!OML:ASF X:\für Bonn\!DataBase\2005_08_12_Daniel\c3d\Daniel.ASF
:FULLY-SPECIFIED
:DEGREES
64
root -0.0918518 7.59466 -0.799565 11.0994 -86.2364 -43.1709
lowerback 60.9713 -4.50458 5.87082
upperback 2.57428 -3.74625 -3.26836
thorax -19.6252 -2.47193 -4.20192
lowerneck 5.2961 0.954598 -2.02393
upperneck -1.63916 1.19991 2.22797
head -1.43425 0.566063 1.00495
rclavicle -2.5842e-015 4.77083e-015
rhumerus 69.1368 1.86304 -92.035
rradius 4.97941
rwrist 57.4434
rhand -20.8373 7.34591
rfingers 7.12502
rthumb 5.53143 -22.5619
lclavicle -2.5842e-015 4.77083e-015
lhumerus 66.779 3.66526 100.941
lradius 11.0589
lwrist -80.1229
lhand -18.7811 -4.23005
lfingers 7.12502
lthumb 7.51648 25.6164
rfemur 14.8544 -60.6067 -104.51
rtibia 146.048
rfoot -12.6415 74.6507
rtoes 0.615244
lfemur -26.7418 63.9627 65.2564
ltibia 145.007
lfoot -1.5692 -74.0964
ltoes 11.0933
65
root -0.0949404 7.43654 -0.806211 10.3347 -86.2352 -42.8696
lowerback 61.4394 -4.5223 5.85585
upperback 2.62195 -3.78106 -3.27356
thorax -19.5845 -2.49163 -4.17319
lowerneck 5.23404 0.956144 -2.01042
upperneck -1.70686 1.20444 2.19494
head -1.44457 0.569453 0.992283
rclavicle -5.36719e-015 -7.95139e-015
rhumerus 69.2056 1.78042 -91.9789
rradius 5.11734
rwrist 57.3645
rhand -20.9418 7.40385
rfingers 7.12502
rthumb 5.43051 -22.5066
lclavicle -5.36719e-015 -7.95139e-015
lhumerus 66.6811 3.34486 99.795
lradius 11.3721
lwrist -78.7871
lhand -18.7352 -4.44784
lfingers 7.12502
lthumb 7.56079 25.397
rfemur 17.6487 -59.5471 -109.987
rtibia 147.268
rfoot -14.4148 76.1435
rtoes 0.904291
lfemur -23.1882 64.9999 71.1765
ltibia 146.15
lfoot -1.68236 -75.5743
ltoes 10.975
66
root -0.0978816 7.28476 -0.812078 9.92045 -86.2404 -42.878
lowerback 61.8683 -4.54954 5.86508
upperback 2.65899 -3.81048 -3.28069
thorax -19.5535 -2.51038 -4.16125
lowerneck 5.15099 0.958898 -2.00246
upperneck -1.74637 1.2097 2.14987
head -1.4421 0.573598 0.976664
rclavicle 1.07344e-014 -1.11319e-014
rhumerus 69.193 1.70392 -91.9268
rradius 5.35332
rwrist 57.3805
rhand -20.8282 7.45115
rfingers 7.12502
rthumb 5.5402 -22.4564
lclavicle 1.07344e-014 -1.11319e-014
lhumerus 66.5626 3.05868 98.6794
lradius 11.625
lwrist -77.4291
lhand -18.8811 -4.6549
lfingers 7.12502
lthumb 7.41989 25.195
rfemur 19.7798 -58.4549 -114.696
rtibia 148.459
rfoot -17.1957 77.3814
rtoes 0.949641
lfemur -19.4957 65.8127 77.2151
ltibia 147.265
lfoot -2.57425 -76.9556
ltoes 10.7174
67
root -0.101042 7.14099 -0.817811 9.30058 -86.2327 -42.6476
lowerback 62.2488 -4.56407 5.83968
upperback 2.70844 -3.84329 -3.25479
thorax -19.4998 -2.52769 -4.09375
lowerneck 5.0345 0.96929 -2.04389
upperneck -1.75863 1.22183 2.09214
head -1.42555 0.582002 0.9653
rclavicle 2.28602e-014 3.49861e-014
rhumerus 69.2079 1.70169 -91.8574
rradius 5.58113
rwrist 57.3988
rhand -20.5806 7.45789
rfingers 7.12502
rthumb 5.77931 -22.4433
lclavicle 2.28602e-014 3.49861e-014
lhumerus 66.5377 2.93175 97.9054
lradius 11.6868
lwrist -76.4335
lhand -19.2726 -4.80962
lfingers 7.12502
lthumb 7.04205 25.0532
rfemur 21.4491 -57.2998 -118.847
rtibia 149.607
rfoot -22.1286 78.394
rtoes 0.830922
lfemur -16.1873 66.4135 82.7511
ltibia 148.327
lfoot -3.77559 -78.1239
ltoes 10.5084
68
root -0.103696 7.00673 -0.823824 8.58488 -86.2341 -42.3008
lowerback 62.621 -4.58695 5.84041
upperback 2.74111 -3.87541 -3.26947
thorax -19.4708 -2.54623 -4.08711
lowerneck 4.91837 0.96007 -2.01272
upperneck -1.73943 1.21177 2.03214
head -1.39773 0.578674 0.941294
rclavicle -1.78906e-015 -5.56597e-015
rhumerus 69.1844 1.62636 -91.8177
rradius 5.76524
rwrist 57.4463
rhand -20.2999 7.47399
rfingers 7.12502
rthumb 6.05033 -22.4196
lclavicle -1.78906e-015 -5.56597e-015
lhumerus 66.5073 2.76848 97.0892
lradius 11.5667
lwrist -75.4428
lhand -19.9429 -4.92107
lfingers 7.12502
lthumb 6.39493 24.9624
rfemur 22.5742 -56.1687 -122.322
rtibia 150.685
rfoot -28.5826 79.1142
rtoes 0.503037
lfemur -13.17 66.8048 87.8675
ltibia 149.307
lfoot -5.13224 -79.2079
ltoes 10.3668
69
root -0.105913 6.88285 -0.828901 8.15543 -86.23 -42.219
lowerback 62.9691 -4.6122 5.8452
upperback 2.77913 -3.90274 -3.25926
thorax -19.4294 -2.56304 -4.05544
lowerneck 4.79937 0.954947 -2.00379
upperneck -1.73509 1.20479 1.92574
head -1.37396 0.577987 0.906481
rclavicle 7.95139e-015 -6.36111e-015
rhumerus 69.2161 1.58115 -91.7485
rradius 5.87146
rwrist 57.4887
rhand -20.0127 7.46253
rfingers 7.12502
rthumb 6.32753 -22.423
lclavicle 7.95139e-015 -6.36111e-015
lhumerus 66.5615 2.76254 96.6853
lradius 11.2792
lwrist -74.8022
lhand -20.8121 -5.04062
lfingers 7.12502
lthumb 5.5558 24.8666
rfemur 23.2972 -55.0724 -125.235
rtibia 151.68
rfoot -35.6095 79.6054
rtoes 0.13269
lfemur -10.5522 67.0406 92.5027
ltibia 150.194
lfoot -5.22716 -80.2104
ltoes 10.3067
70
root -0.108068 6.77 -0.834237 7.39661 -86.2223 -41.7419
lowerback 63.254 -4.64105 5.8512
upperback 2.80928 -3.93904 -3.27634
thorax -19.4003 -2.5822 -4.05346
lowerneck 4.6917 0.942138 -1.92505
upperneck -1.71782 1.19104 1.81127
head -1.34717 0.573343 0.857397
rclavicle -8.74653e-015 -1.90833e-014
rhumerus 69.3047 1.50156 -91.7048
rradius 5.81108
rwrist 57.4373
rhand -19.836 7.52387
rfingers 7.12502
rthumb 6.49811 -22.3564
lclavicle -8.74653e-015 -1.90833e-014
lhumerus 66.6516 2.75343 96.3069
lradius 10.8082
lwrist -74.201
lhand -21.9052 -5.12374
lfingers 7.12502
lthumb 4.50032 24.8085
rfemur 23.6256 -54.1726 -127.62
rtibia 152.594
rfoot -42.1319 79.9293
rtoes -0.153713
lfemur -8.52718 67.2301 96.3665
ltibia 150.989
lfoot -3.59001 -81.0822
ltoes 10.3992
71
root -0.109578 6.66954 -0.83984 7.03872 -86.2081 -41.6335
lowerback 63.494 -4.67722 5.8725
upperback 2.84519 -3.97095 -3.27878
thorax -19.36 -2.60018 -4.04363
lowerneck 4.58089 0.931877 -1.88805
upperneck -1.6979 1.17776 1.68106
head -1.31934 0.569498 0.810601
rclavicle 2.66371e-014 -1.59028e-015
rhumerus 69.451 1.44096 -91.6472
rradius 5.64554
rwrist 57.2632
rhand -19.7872 7.59767
rfingers 7.12502
rthumb 6.54521 -22.2812
lclavicle 2.66371e-014 -1.59028e-015
lhumerus 66.763 2.7931 96.0405
lradius 10.323
lwrist -73.7376
lhand -22.924 -5.22363
lfingers 7.12502
lthumb 3.51645 24.7271
rfemur 23.6325 -53.4481 -129.445
rtibia 153.383
rfoot -46.5939 80.365
rtoes -0.344462
lfemur -6.72571 67.3592 99.8916
ltibia 151.697
lfoot -2.05415 -81.874
ltoes 10.3563
72
root -0.110398 6.58151 -0.845507 6.32031 -86.1839 -41.132
lowerback 63.6929 -4.71365 5.88272
upperback 2.87737 -4.00999 -3.28013
thorax -19.3241 -2.61938 -4.02462
lowerneck 4.53084 0.919638 -1.85988
upperneck -1.69624 1.1603 1.54784
head -1.30799 0.563334 0.764543
rclavicle -4.57205e-015 -2.14687e-014
rhumerus 69.5995 1.37981 -91.5802
rradius 5.44257
rwrist 56.9958
rhand -19.903 7.7166
rfingers 7.12502
rthumb 6.43345 -22.1657
lclavicle -4.57205e-015 -2.14687e-014
lhumerus 66.8127 2.67415 95.3548
lradius 9.92288
lwrist -72.8178
lhand -23.7255 -5.31989
lfingers 7.12502
lthumb 2.74241 24.6422
rfemur 23.424 -52.8527 -130.917
rtibia 154.052
rfoot -49.6569 81.0146
rtoes -0.281977
lfemur -5.16821 67.428 102.936
ltibia 152.293
lfoot 0.238039 -82.5839
ltoes 10.4646
73
root -0.110756 6.50734 -0.851209 6.14038 -86.1652 -41.1272
lowerback 63.8731 -4.75695 5.91993
upperback 2.87697 -4.03388 -3.28398
thorax -19.3285 -2.63352 -4.02887
lowerneck 4.54237 0.906781 -1.83037
upperneck -1.69745 1.14121 1.42574
head -1.30844 0.555816 0.721783
rclavicle -6.16232e-015 8.74653e-015
rhumerus 69.683 1.30719 -91.5208
rradius 5.27006
rwrist 56.6082
rhand -20.0889 7.82189
rfingers 7.12502
rthumb 6.25399 -22.0658
lclavicle -6.16232e-015 8.74653e-015
lhumerus 66.7883 2.55324 94.6598
lradius 9.6487
lwrist -71.9566
lhand -24.2303 -5.35424
lfingers 7.12502
lthumb 2.25491 24.6136
rfemur 23.09 -52.4461 -131.919
rtibia 154.617
rfoot -52.5863 81.4515
rtoes -0.329261
lfemur -3.78691 67.4592 105.643
ltibia 152.788
lfoot 2.84297 -83.2248
ltoes 10.6093
74
root -0.110274 6.44516 -0.857656 5.97838 -86.1451 -41.0724
lowerback 63.9613 -4.78311 5.94466
upperback 2.89041 -4.04493 -3.27107
thorax -19.3108 -2.64085 -4.01624
lowerneck 4.52826 0.888673 -1.82826
upperneck -1.68056 1.11354 1.29326
head -1.29873 0.544451 0.680698
rclavicle -8.15017e-015 3.4191e-014
rhumerus 69.8139 1.26782 -91.4533
rradius 5.06288
rwrist 56.1061
rhand -20.3437 7.95604
rfingers 7.12502
rthumb 6.00799 -21.9388
lclavicle -8.15017e-015 3.4191e-014
lhumerus 66.6934 2.44824 93.9808
lradius 9.63093
lwrist -71.1756
lhand -24.3576 -5.48303
lfingers 7.12502
lthumb 2.13204 24.4861
rfemur 22.7528 -52.1675 -132.7
rtibia 155.096
rfoot -54.665 81.9104
rtoes -0.274616
lfemur -2.57557 67.524 107.992
ltibia 153.208
lfoot 4.75285 -83.7569
ltoes 10.6537
75
root -0.109259 6.39451 -0.864051 5.66138 -86.1117 -40.8209
lowerback 64.0253 -4.8293 5.96335
upperback 2.8822 -4.08299 -3.26835
thorax -19.3248 -2.65721 -3.99884
lowerneck 4.4513 0.882085 -1.80173
upperneck -1.60086 1.10321 1.15675
head -1.25819 0.54159 0.633845
rclavicle -4.96962e-015 -9.54166e-015
rhumerus 69.8943 1.24208 -91.4061
rradius 4.91029
rwrist 55.5696
rhand -20.5991 8.0794
rfingers 7.12502
rthumb 5.76144 -21.8223
lclavicle -4.96962e-015 -9.54166e-015
lhumerus 66.455 2.42456 93.2529
lradius 9.94487
lwrist -70.566
lhand -24.1029 -5.68615
lfingers 7.12502
lthumb 2.37797 24.2803
rfemur 22.5089 -51.9419 -133.393
rtibia 155.481
rfoot -56.6097 82.3177
rtoes -0.30206
lfemur -1.49428 67.5857 109.99
ltibia 153.545
lfoot 7.27465 -84.1855
ltoes 10.6833
76
root -0.103717 6.40046 -0.874034 5.51229 -86.0776 -40.7263
lowerback 64.0839 -4.87034 5.98985
upperback 2.86565 -4.1066 -3.25963
thorax -19.3474 -2.66822 -3.98558
lowerneck 4.29127 0.864286 -1.71568
upperneck -1.44179 1.08117 0.973824
head -1.17711 0.533097 0.562974
rclavicle 3.37934e-015 0
rhumerus 69.9985 1.22892 -91.3605
rradius 4.72805
rwrist 55.0734
rhand -20.8569 8.21995
rfingers 7.12502
rthumb 5.51255 -21.6883
lclavicle 3.37934e-015 0
lhumerus 66.0792 2.38396 92.5368
lradius 10.6224
lwrist -70.0052
lhand -23.4959 -5.92667
lfingers 7.12502
lthumb 2.96418 24.0325
rfemur 23.3949 -51.321 -134.415
rtibia 155.421
rfoot -60.2907 82.3366
rtoes -0.311089
lfemur 0.645271 67.4861 112.261
ltibia 153.442
lfoot 4.97657 -84.6193
ltoes 10.7586
